<mxfile host="app.diagrams.net" modified="2023-06-12T15:53:54.257Z" agent="Mozilla/5.0 (Macintosh; Intel Mac OS X 10_15_7) AppleWebKit/537.36 (KHTML, like Gecko) Chrome/114.0.0.0 Safari/537.36" etag="oj2Ws4OoH7zyC8hfkmUA" version="21.3.7" type="device">
  <diagram name="Page-1" id="rbiUo5bFybXOO1fcTCTT">
    <mxGraphModel dx="1080" dy="691" grid="1" gridSize="10" guides="1" tooltips="1" connect="1" arrows="1" fold="1" page="1" pageScale="1" pageWidth="850" pageHeight="1100" math="0" shadow="0">
      <root>
        <mxCell id="0" />
        <mxCell id="1" parent="0" />
        <mxCell id="9J3SF0-3zK-d3_jPCRng-8" value="" style="rounded=0;whiteSpace=wrap;html=1;fillColor=#CCFF99;" parent="1" vertex="1">
          <mxGeometry x="40" y="530" width="760" height="300" as="geometry" />
        </mxCell>
        <mxCell id="9J3SF0-3zK-d3_jPCRng-41" value="" style="group" parent="1" vertex="1" connectable="0">
          <mxGeometry x="40" y="320" width="80" height="40" as="geometry" />
        </mxCell>
        <mxCell id="9J3SF0-3zK-d3_jPCRng-36" value="Andi" style="rounded=0;whiteSpace=wrap;html=1;fillColor=#66B2FF;movable=1;resizable=1;rotatable=1;deletable=1;editable=1;locked=0;connectable=1;" parent="9J3SF0-3zK-d3_jPCRng-41" vertex="1">
          <mxGeometry width="80" height="40" as="geometry" />
        </mxCell>
        <mxCell id="9J3SF0-3zK-d3_jPCRng-42" value="" style="group" parent="1" vertex="1" connectable="0">
          <mxGeometry x="130" y="320" width="80" height="40" as="geometry" />
        </mxCell>
        <mxCell id="9J3SF0-3zK-d3_jPCRng-43" value="Reaper" style="rounded=0;whiteSpace=wrap;html=1;fillColor=#66B2FF;movable=1;resizable=1;rotatable=1;deletable=1;editable=1;locked=0;connectable=1;" parent="9J3SF0-3zK-d3_jPCRng-42" vertex="1">
          <mxGeometry width="80" height="40" as="geometry" />
        </mxCell>
        <mxCell id="9J3SF0-3zK-d3_jPCRng-46" value="" style="group" parent="1" vertex="1" connectable="0">
          <mxGeometry x="220" y="320" width="80" height="40" as="geometry" />
        </mxCell>
        <mxCell id="9J3SF0-3zK-d3_jPCRng-47" value="Alchemist" style="rounded=0;whiteSpace=wrap;html=1;fillColor=#66B2FF;movable=1;resizable=1;rotatable=1;deletable=1;editable=1;locked=0;connectable=1;" parent="9J3SF0-3zK-d3_jPCRng-46" vertex="1">
          <mxGeometry width="80" height="40" as="geometry" />
        </mxCell>
        <mxCell id="9J3SF0-3zK-d3_jPCRng-49" value="" style="group" parent="1" vertex="1" connectable="0">
          <mxGeometry x="310" y="320" width="80" height="40" as="geometry" />
        </mxCell>
        <mxCell id="9J3SF0-3zK-d3_jPCRng-50" value="Valkyrie" style="rounded=0;whiteSpace=wrap;html=1;fillColor=#66B2FF;movable=1;resizable=1;rotatable=1;deletable=1;editable=1;locked=0;connectable=1;" parent="9J3SF0-3zK-d3_jPCRng-49" vertex="1">
          <mxGeometry width="80" height="40" as="geometry" />
        </mxCell>
        <mxCell id="9J3SF0-3zK-d3_jPCRng-53" value="" style="group" parent="1" vertex="1" connectable="0">
          <mxGeometry x="400" y="320" width="80" height="40" as="geometry" />
        </mxCell>
        <mxCell id="9J3SF0-3zK-d3_jPCRng-54" value="Forklift" style="rounded=0;whiteSpace=wrap;html=1;fillColor=#66B2FF;movable=1;resizable=1;rotatable=1;deletable=1;editable=1;locked=0;connectable=1;" parent="9J3SF0-3zK-d3_jPCRng-53" vertex="1">
          <mxGeometry width="80" height="40" as="geometry" />
        </mxCell>
        <mxCell id="9J3SF0-3zK-d3_jPCRng-56" value="Redis" style="rounded=0;whiteSpace=wrap;html=1;fillColor=#CCFF99;" parent="1" vertex="1">
          <mxGeometry x="280" y="160" width="120" height="40" as="geometry" />
        </mxCell>
        <mxCell id="9J3SF0-3zK-d3_jPCRng-65" value="Postgres" style="rounded=0;whiteSpace=wrap;html=1;fillColor=#CCFF99;" parent="1" vertex="1">
          <mxGeometry x="40" y="160" width="80" height="40" as="geometry" />
        </mxCell>
        <mxCell id="9J3SF0-3zK-d3_jPCRng-66" style="edgeStyle=orthogonalEdgeStyle;rounded=0;orthogonalLoop=1;jettySize=auto;html=1;" parent="1" source="9J3SF0-3zK-d3_jPCRng-36" edge="1">
          <mxGeometry relative="1" as="geometry">
            <mxPoint x="280" y="200" as="targetPoint" />
            <Array as="points">
              <mxPoint x="100" y="280" />
              <mxPoint x="280" y="280" />
            </Array>
          </mxGeometry>
        </mxCell>
        <mxCell id="9J3SF0-3zK-d3_jPCRng-68" style="edgeStyle=orthogonalEdgeStyle;rounded=0;orthogonalLoop=1;jettySize=auto;html=1;startArrow=classic;startFill=1;" parent="1" source="9J3SF0-3zK-d3_jPCRng-36" edge="1">
          <mxGeometry relative="1" as="geometry">
            <mxPoint x="80" y="200" as="targetPoint" />
            <Array as="points">
              <mxPoint x="80" y="200" />
            </Array>
          </mxGeometry>
        </mxCell>
        <mxCell id="9J3SF0-3zK-d3_jPCRng-72" value="Sync UI State" style="edgeLabel;html=1;align=center;verticalAlign=middle;resizable=0;points=[];" parent="9J3SF0-3zK-d3_jPCRng-68" vertex="1" connectable="0">
          <mxGeometry x="0.2467" relative="1" as="geometry">
            <mxPoint y="-15" as="offset" />
          </mxGeometry>
        </mxCell>
        <mxCell id="9J3SF0-3zK-d3_jPCRng-70" style="edgeStyle=orthogonalEdgeStyle;rounded=0;orthogonalLoop=1;jettySize=auto;html=1;exitX=0.5;exitY=0;exitDx=0;exitDy=0;" parent="1" source="9J3SF0-3zK-d3_jPCRng-43" edge="1">
          <mxGeometry relative="1" as="geometry">
            <mxPoint x="300" y="200" as="targetPoint" />
            <Array as="points">
              <mxPoint x="170" y="290" />
              <mxPoint x="300" y="290" />
              <mxPoint x="300" y="200" />
            </Array>
          </mxGeometry>
        </mxCell>
        <mxCell id="9J3SF0-3zK-d3_jPCRng-82" style="edgeStyle=orthogonalEdgeStyle;rounded=0;orthogonalLoop=1;jettySize=auto;html=1;" parent="1" source="9J3SF0-3zK-d3_jPCRng-54" edge="1">
          <mxGeometry relative="1" as="geometry">
            <Array as="points">
              <mxPoint x="460" y="300" />
              <mxPoint x="360" y="300" />
            </Array>
            <mxPoint x="360" y="200" as="targetPoint" />
          </mxGeometry>
        </mxCell>
        <mxCell id="9J3SF0-3zK-d3_jPCRng-89" style="edgeStyle=orthogonalEdgeStyle;rounded=0;orthogonalLoop=1;jettySize=auto;html=1;exitX=0.5;exitY=0;exitDx=0;exitDy=0;" parent="1" source="9J3SF0-3zK-d3_jPCRng-50" edge="1">
          <mxGeometry relative="1" as="geometry">
            <Array as="points">
              <mxPoint x="340" y="320" />
              <mxPoint x="340" y="199" />
            </Array>
            <mxPoint x="520" y="350" as="sourcePoint" />
            <mxPoint x="340" y="199" as="targetPoint" />
          </mxGeometry>
        </mxCell>
        <mxCell id="9J3SF0-3zK-d3_jPCRng-102" value="&lt;font color=&quot;#ffffff&quot;&gt;Event Stream&lt;/font&gt;" style="rounded=0;whiteSpace=wrap;html=1;fillColor=#006600;" parent="1" vertex="1">
          <mxGeometry x="75" y="690" width="700" height="60" as="geometry" />
        </mxCell>
        <mxCell id="9J3SF0-3zK-d3_jPCRng-108" value="" style="group" parent="1" vertex="1" connectable="0">
          <mxGeometry x="288" y="570" width="275" height="95" as="geometry" />
        </mxCell>
        <mxCell id="9J3SF0-3zK-d3_jPCRng-104" value="" style="rounded=0;whiteSpace=wrap;html=1;fillColor=#97D077;" parent="9J3SF0-3zK-d3_jPCRng-108" vertex="1">
          <mxGeometry width="275" height="90" as="geometry" />
        </mxCell>
        <mxCell id="9J3SF0-3zK-d3_jPCRng-107" value="&lt;font color=&quot;#ffffff&quot;&gt;Validated Topic&lt;/font&gt;" style="rounded=0;whiteSpace=wrap;html=1;fillColor=#006600;" parent="9J3SF0-3zK-d3_jPCRng-108" vertex="1">
          <mxGeometry x="99.99813953488373" y="20" width="73.54651162790698" height="35" as="geometry" />
        </mxCell>
        <mxCell id="9J3SF0-3zK-d3_jPCRng-118" style="edgeStyle=orthogonalEdgeStyle;rounded=0;orthogonalLoop=1;jettySize=auto;html=1;exitX=0.25;exitY=0;exitDx=0;exitDy=0;" parent="1" source="9J3SF0-3zK-d3_jPCRng-6" edge="1">
          <mxGeometry relative="1" as="geometry">
            <Array as="points">
              <mxPoint x="140" y="570" />
              <mxPoint x="140" y="360" />
            </Array>
            <mxPoint x="140" y="360" as="targetPoint" />
          </mxGeometry>
        </mxCell>
        <mxCell id="9J3SF0-3zK-d3_jPCRng-119" style="edgeStyle=orthogonalEdgeStyle;rounded=0;orthogonalLoop=1;jettySize=auto;html=1;entryX=0.25;entryY=1;entryDx=0;entryDy=0;" parent="1" source="9J3SF0-3zK-d3_jPCRng-6" target="9J3SF0-3zK-d3_jPCRng-47" edge="1">
          <mxGeometry relative="1" as="geometry">
            <Array as="points">
              <mxPoint x="150" y="420" />
              <mxPoint x="240" y="420" />
            </Array>
          </mxGeometry>
        </mxCell>
        <mxCell id="9J3SF0-3zK-d3_jPCRng-120" style="edgeStyle=orthogonalEdgeStyle;rounded=0;orthogonalLoop=1;jettySize=auto;html=1;entryX=0.25;entryY=1;entryDx=0;entryDy=0;exitX=1;exitY=0;exitDx=0;exitDy=0;" parent="1" source="9J3SF0-3zK-d3_jPCRng-6" target="9J3SF0-3zK-d3_jPCRng-50" edge="1">
          <mxGeometry relative="1" as="geometry">
            <Array as="points">
              <mxPoint x="160" y="570" />
              <mxPoint x="160" y="430" />
              <mxPoint x="330" y="430" />
            </Array>
          </mxGeometry>
        </mxCell>
        <mxCell id="9J3SF0-3zK-d3_jPCRng-121" style="edgeStyle=orthogonalEdgeStyle;rounded=0;orthogonalLoop=1;jettySize=auto;html=1;" parent="1" source="9J3SF0-3zK-d3_jPCRng-6" edge="1">
          <mxGeometry relative="1" as="geometry">
            <Array as="points">
              <mxPoint x="170" y="440" />
              <mxPoint x="420" y="440" />
            </Array>
            <mxPoint x="420" y="360" as="targetPoint" />
          </mxGeometry>
        </mxCell>
        <mxCell id="9J3SF0-3zK-d3_jPCRng-128" style="edgeStyle=orthogonalEdgeStyle;rounded=0;orthogonalLoop=1;jettySize=auto;html=1;startArrow=classic;startFill=1;" parent="1" source="9J3SF0-3zK-d3_jPCRng-6" target="9J3SF0-3zK-d3_jPCRng-102" edge="1">
          <mxGeometry relative="1" as="geometry">
            <Array as="points">
              <mxPoint x="120" y="690" />
              <mxPoint x="120" y="690" />
            </Array>
          </mxGeometry>
        </mxCell>
        <mxCell id="xAkMITN9UPs4NktXeQwS-29" style="edgeStyle=orthogonalEdgeStyle;rounded=0;orthogonalLoop=1;jettySize=auto;html=1;entryX=0.5;entryY=1;entryDx=0;entryDy=0;" edge="1" parent="1" source="9J3SF0-3zK-d3_jPCRng-6" target="xAkMITN9UPs4NktXeQwS-17">
          <mxGeometry relative="1" as="geometry">
            <Array as="points">
              <mxPoint x="180" y="450" />
              <mxPoint x="530" y="450" />
            </Array>
          </mxGeometry>
        </mxCell>
        <mxCell id="xAkMITN9UPs4NktXeQwS-33" style="edgeStyle=orthogonalEdgeStyle;rounded=0;orthogonalLoop=1;jettySize=auto;html=1;entryX=0.5;entryY=1;entryDx=0;entryDy=0;" edge="1" parent="1" source="9J3SF0-3zK-d3_jPCRng-6" target="xAkMITN9UPs4NktXeQwS-31">
          <mxGeometry relative="1" as="geometry">
            <Array as="points">
              <mxPoint x="190" y="460" />
              <mxPoint x="620" y="460" />
            </Array>
          </mxGeometry>
        </mxCell>
        <mxCell id="9J3SF0-3zK-d3_jPCRng-6" value="Dataset_Update" style="rounded=0;whiteSpace=wrap;html=1;fillColor=#FF9999;" parent="1" vertex="1">
          <mxGeometry x="75" y="570" width="120" height="40" as="geometry" />
        </mxCell>
        <mxCell id="9J3SF0-3zK-d3_jPCRng-122" style="edgeStyle=orthogonalEdgeStyle;rounded=0;orthogonalLoop=1;jettySize=auto;html=1;" parent="1" source="9J3SF0-3zK-d3_jPCRng-36" edge="1">
          <mxGeometry relative="1" as="geometry">
            <Array as="points">
              <mxPoint x="90" y="450" />
              <mxPoint x="90" y="450" />
            </Array>
            <mxPoint x="90" y="570" as="targetPoint" />
          </mxGeometry>
        </mxCell>
        <mxCell id="9J3SF0-3zK-d3_jPCRng-123" value="Send" style="rounded=0;whiteSpace=wrap;html=1;" parent="1" vertex="1">
          <mxGeometry x="60" y="460" width="50" height="20" as="geometry" />
        </mxCell>
        <mxCell id="9J3SF0-3zK-d3_jPCRng-126" value="Receieve" style="rounded=0;whiteSpace=wrap;html=1;" parent="1" vertex="1">
          <mxGeometry x="130" y="460" width="70" height="20" as="geometry" />
        </mxCell>
        <mxCell id="9J3SF0-3zK-d3_jPCRng-130" style="edgeStyle=orthogonalEdgeStyle;rounded=0;orthogonalLoop=1;jettySize=auto;html=1;" parent="1" source="9J3SF0-3zK-d3_jPCRng-50" target="9J3SF0-3zK-d3_jPCRng-107" edge="1">
          <mxGeometry relative="1" as="geometry">
            <Array as="points">
              <mxPoint x="370" y="420" />
              <mxPoint x="430" y="420" />
            </Array>
          </mxGeometry>
        </mxCell>
        <mxCell id="9J3SF0-3zK-d3_jPCRng-131" value="Create and Consume Data Topic" style="rounded=0;whiteSpace=wrap;html=1;fontSize=11;" parent="1" vertex="1">
          <mxGeometry x="362.5" y="490" width="157.5" height="30" as="geometry" />
        </mxCell>
        <mxCell id="ZxNKODZLQWNlTjTZxuV1-7" value="Dataset Update" style="rounded=0;whiteSpace=wrap;html=1;fontSize=29;" parent="1" vertex="1">
          <mxGeometry x="195" y="40" width="440" height="80" as="geometry" />
        </mxCell>
        <mxCell id="xAkMITN9UPs4NktXeQwS-7" style="edgeStyle=orthogonalEdgeStyle;rounded=0;orthogonalLoop=1;jettySize=auto;html=1;" edge="1" parent="1" source="xAkMITN9UPs4NktXeQwS-1" target="xAkMITN9UPs4NktXeQwS-6">
          <mxGeometry relative="1" as="geometry" />
        </mxCell>
        <mxCell id="xAkMITN9UPs4NktXeQwS-1" value="Trino" style="rounded=0;whiteSpace=wrap;html=1;fillColor=#CCFF99;" vertex="1" parent="1">
          <mxGeometry x="680" y="220" width="80" height="20" as="geometry" />
        </mxCell>
        <mxCell id="xAkMITN9UPs4NktXeQwS-11" style="edgeStyle=orthogonalEdgeStyle;rounded=0;orthogonalLoop=1;jettySize=auto;html=1;entryX=0.5;entryY=1;entryDx=0;entryDy=0;" edge="1" parent="1" source="xAkMITN9UPs4NktXeQwS-2" target="xAkMITN9UPs4NktXeQwS-10">
          <mxGeometry relative="1" as="geometry" />
        </mxCell>
        <mxCell id="xAkMITN9UPs4NktXeQwS-2" value="Hive" style="rounded=0;whiteSpace=wrap;html=1;fillColor=#CCFF99;" vertex="1" parent="1">
          <mxGeometry x="680" y="140" width="80" height="20" as="geometry" />
        </mxCell>
        <mxCell id="xAkMITN9UPs4NktXeQwS-3" value="S3" style="rounded=0;whiteSpace=wrap;html=1;fillColor=#CCFF99;" vertex="1" parent="1">
          <mxGeometry x="680" y="60" width="80" height="20" as="geometry" />
        </mxCell>
        <mxCell id="xAkMITN9UPs4NktXeQwS-4" style="edgeStyle=orthogonalEdgeStyle;rounded=0;orthogonalLoop=1;jettySize=auto;html=1;entryX=0.5;entryY=1;entryDx=0;entryDy=0;" edge="1" parent="1" source="9J3SF0-3zK-d3_jPCRng-54" target="xAkMITN9UPs4NktXeQwS-1">
          <mxGeometry relative="1" as="geometry">
            <Array as="points">
              <mxPoint x="470" y="300" />
              <mxPoint x="720" y="300" />
            </Array>
          </mxGeometry>
        </mxCell>
        <mxCell id="xAkMITN9UPs4NktXeQwS-5" value="Create SQL Table" style="rounded=0;whiteSpace=wrap;html=1;fontSize=10;" vertex="1" parent="1">
          <mxGeometry x="671.25" y="250" width="97.5" height="20" as="geometry" />
        </mxCell>
        <mxCell id="xAkMITN9UPs4NktXeQwS-8" style="edgeStyle=orthogonalEdgeStyle;rounded=0;orthogonalLoop=1;jettySize=auto;html=1;entryX=0.5;entryY=1;entryDx=0;entryDy=0;" edge="1" parent="1" source="xAkMITN9UPs4NktXeQwS-6" target="xAkMITN9UPs4NktXeQwS-2">
          <mxGeometry relative="1" as="geometry" />
        </mxCell>
        <mxCell id="xAkMITN9UPs4NktXeQwS-6" value="Distribute Queries" style="rounded=0;whiteSpace=wrap;html=1;fontSize=10;" vertex="1" parent="1">
          <mxGeometry x="671.25" y="180" width="97.5" height="20" as="geometry" />
        </mxCell>
        <mxCell id="xAkMITN9UPs4NktXeQwS-12" style="edgeStyle=orthogonalEdgeStyle;rounded=0;orthogonalLoop=1;jettySize=auto;html=1;entryX=0.5;entryY=1;entryDx=0;entryDy=0;" edge="1" parent="1" source="xAkMITN9UPs4NktXeQwS-10" target="xAkMITN9UPs4NktXeQwS-3">
          <mxGeometry relative="1" as="geometry" />
        </mxCell>
        <mxCell id="xAkMITN9UPs4NktXeQwS-10" value="Update Files" style="rounded=0;whiteSpace=wrap;html=1;fontSize=10;" vertex="1" parent="1">
          <mxGeometry x="671.25" y="100" width="97.5" height="20" as="geometry" />
        </mxCell>
        <mxCell id="xAkMITN9UPs4NktXeQwS-16" value="" style="group" vertex="1" connectable="0" parent="1">
          <mxGeometry x="490" y="320" width="80" height="40" as="geometry" />
        </mxCell>
        <mxCell id="xAkMITN9UPs4NktXeQwS-17" value="Discovery API" style="rounded=0;whiteSpace=wrap;html=1;fillColor=#66B2FF;movable=1;resizable=1;rotatable=1;deletable=1;editable=1;locked=0;connectable=1;" vertex="1" parent="xAkMITN9UPs4NktXeQwS-16">
          <mxGeometry width="80" height="40" as="geometry" />
        </mxCell>
        <mxCell id="xAkMITN9UPs4NktXeQwS-20" value="Elastic Search" style="rounded=0;whiteSpace=wrap;html=1;fillColor=#CCFF99;" vertex="1" parent="1">
          <mxGeometry x="440" y="160" width="80" height="40" as="geometry" />
        </mxCell>
        <mxCell id="xAkMITN9UPs4NktXeQwS-21" style="edgeStyle=orthogonalEdgeStyle;rounded=0;orthogonalLoop=1;jettySize=auto;html=1;entryX=0.5;entryY=1;entryDx=0;entryDy=0;exitX=0.75;exitY=0;exitDx=0;exitDy=0;" edge="1" parent="1" source="xAkMITN9UPs4NktXeQwS-17" target="xAkMITN9UPs4NktXeQwS-20">
          <mxGeometry relative="1" as="geometry">
            <mxPoint x="570" y="340" as="sourcePoint" />
            <Array as="points">
              <mxPoint x="550" y="260" />
              <mxPoint x="480" y="260" />
            </Array>
          </mxGeometry>
        </mxCell>
        <mxCell id="xAkMITN9UPs4NktXeQwS-22" value="Update Search Index" style="rounded=0;whiteSpace=wrap;html=1;fontSize=10;" vertex="1" parent="1">
          <mxGeometry x="440" y="240" width="80" height="30" as="geometry" />
        </mxCell>
        <mxCell id="xAkMITN9UPs4NktXeQwS-26" style="edgeStyle=orthogonalEdgeStyle;rounded=0;orthogonalLoop=1;jettySize=auto;html=1;exitX=0.5;exitY=0;exitDx=0;exitDy=0;" edge="1" parent="1" source="9J3SF0-3zK-d3_jPCRng-47">
          <mxGeometry relative="1" as="geometry">
            <mxPoint x="260" y="310" as="sourcePoint" />
            <mxPoint x="320" y="199" as="targetPoint" />
            <Array as="points">
              <mxPoint x="260" y="300" />
              <mxPoint x="320" y="300" />
              <mxPoint x="320" y="199" />
            </Array>
          </mxGeometry>
        </mxCell>
        <mxCell id="xAkMITN9UPs4NktXeQwS-28" style="edgeStyle=orthogonalEdgeStyle;rounded=0;orthogonalLoop=1;jettySize=auto;html=1;" edge="1" parent="1" source="xAkMITN9UPs4NktXeQwS-17">
          <mxGeometry relative="1" as="geometry">
            <mxPoint x="380" y="200" as="targetPoint" />
            <Array as="points">
              <mxPoint x="530" y="290" />
              <mxPoint x="380" y="290" />
            </Array>
          </mxGeometry>
        </mxCell>
        <mxCell id="9J3SF0-3zK-d3_jPCRng-87" value="Persist Dataset Entity" style="rounded=0;whiteSpace=wrap;html=1;fontSize=10;" parent="1" vertex="1">
          <mxGeometry x="270" y="220" width="130" height="20" as="geometry" />
        </mxCell>
        <mxCell id="xAkMITN9UPs4NktXeQwS-30" value="" style="group" vertex="1" connectable="0" parent="1">
          <mxGeometry x="580" y="320" width="80" height="40" as="geometry" />
        </mxCell>
        <mxCell id="xAkMITN9UPs4NktXeQwS-31" value="Discovery Streams" style="rounded=0;whiteSpace=wrap;html=1;fillColor=#66B2FF;movable=1;resizable=1;rotatable=1;deletable=1;editable=1;locked=0;connectable=1;" vertex="1" parent="xAkMITN9UPs4NktXeQwS-30">
          <mxGeometry width="80" height="40" as="geometry" />
        </mxCell>
        <mxCell id="xAkMITN9UPs4NktXeQwS-32" style="edgeStyle=orthogonalEdgeStyle;rounded=0;orthogonalLoop=1;jettySize=auto;html=1;entryX=1;entryY=1;entryDx=0;entryDy=0;" edge="1" parent="1" source="xAkMITN9UPs4NktXeQwS-31" target="9J3SF0-3zK-d3_jPCRng-56">
          <mxGeometry relative="1" as="geometry">
            <Array as="points">
              <mxPoint x="600" y="280" />
              <mxPoint x="400" y="280" />
            </Array>
          </mxGeometry>
        </mxCell>
      </root>
    </mxGraphModel>
  </diagram>
</mxfile>
